<svg xmlns="http://www.w3.org/2000/svg" viewBox="0 0 64 64"><g class="gotchi-bg"><defs fill="#fff"><pattern id="a" patternUnits="userSpaceOnUse" width="4" height="4"><path d="M0 0h1v1H0zm2 2h1v1H2z"/></pattern><pattern id="b" patternUnits="userSpaceOnUse" x="0" y="0" width="2" height="2"><path d="M0 0h1v1H0z"/></pattern><pattern id="c" patternUnits="userSpaceOnUse" x="-2" y="0" width="8" height="1"><path d="M0 0h1v1H0zm2 0h1v1H2zm2 0h1v1H4z"/></pattern><pattern id="d" patternUnits="userSpaceOnUse" x="0" y="0" width="4" height="4"><path d="M0 0h1v1H0zm0 2h1v1H0zm1 0V1h1v1zm1 0h1v1H2zm0-1h1V0H2zm1 2h1v1H3z"/></pattern><pattern id="e" patternUnits="userSpaceOnUse" width="64" height="32"><path d="M4 4h1v1H4zm7 0h1v1h-1zm7 0h1v1h-1zm7 0h1v1h-1zm7 0h1v1h-1zm7 0h1v1h-1zm7 0h1v1h-1zm7 0h1v1h-1zm7 0h1v1h-1z"/><path fill="url(#a)" d="M0 8h64v7H0z"/><path fill="url(#b)" d="M0 16h64v1H0z"/><path fill="url(#c)" d="M0 18h64v1H0z"/><path fill="url(#b)" d="M22 18h15v1H22zM0 20h64v3H0z"/><path fill="url(#d)" d="M0 24h64v8H0z"/></pattern><mask id="f"><path fill="url(#e)" d="M0 0h64v32H0z"/></mask></defs><path fill="#fff" d="M0 0h64v32H0z"/><path fill="#dea8ff" class="gotchi-secondary" mask="url(#f)" d="M0 0h64v32H0z"/><path fill="#dea8ff" class="gotchi-secondary" d="M0 32h64v32H0z"/><path mask="url(#f)" fill="#fff" transform="matrix(1 0 0 -1 0 64)" d="M0 0h64v32H0z"/></g><style>.gotchi-primary{fill:#FF5E00;}.gotchi-secondary{fill:#FFCAA2;}.gotchi-cheek{fill:#F696C6;}.gotchi-eyeColor{fill:#36818E;}.gotchi-primary-mouth{fill:#FF5E00;}.gotchi-sleeves-up{display:none;}.gotchi-handsUp{display:none;}.gotchi-handsDownOpen{display:block;}.gotchi-handsDownClosed{display:none;}
  .gotchi-bg {
    display:none;
  }


svg {
  animation-name:down;
  animation-duration:0.5s;
  animation-iteration-count: infinite;
  animation-timing-function: linear;
  animation-timing-function: steps(1);
}

.gotchi-shadow {
  animation: up 0.5s infinite linear steps(2);
    animation-name:up;
    animation-duration:0.5s;
    animation-iteration-count: infinite;
    animation-timing-function: linear;
    animation-timing-function: steps(2);
}

.gotchi-wearable {
  animation-name:down;
  animation-duration:0.5s;
  animation-iteration-count: infinite;
  animation-timing-function: linear;
  animation-timing-function: steps(1);
}




.gotchi-handsDownClosed, .gotchi-handsUp, .gotchi-handsDownOpen, .gotchi-handsDownClosed, .gotchi-body, .gotchi-eyeColor, .gotchi-collateral, .gotchi-cheek, .gotchi-primary-mouth, .gotchi-wearable, .gotchi-sleeves   {
    animation-name:down;
    animation-duration:0.5s;
    animation-iteration-count: infinite;
    animation-timing-function: linear;
    animation-timing-function: steps(2);
}

.wearable-hand {
  animation-name:down !important;
  animation-duration:0.5s;
  animation-iteration-count: infinite;
  animation-timing-function: linear;
  animation-timing-function: steps(2);
}

.wearable-bg {
  animation-name:none !important;
}


@keyframes downHands {
  from {
    --hand_translateY: -4px;
  }
  to {
    --hand_translateY: -3.5px;
  }
}


@keyframes up {
  from {
    transform: translate(0px, 0);
  }
 to {
    transform: translate(0px, -1px);
  }
}


@keyframes down {
  from {
    transform: translate(0px, 0);
      }
  to {
      transform: translate(0px, 1px);
    }
}
</style><g class="gotchi-body"><path d="M47 14v-2h-2v-2h-4V8h-4V6H27v2h-4v2h-4v2h-2v2h-2v41h4v-2h5v2h5v-2h6v2h5v-2h5v2h4V14z" class="gotchi-primary"/><path d="M45 14v-2h-4v-2h-4V8H27v2h-4v2h-4v2h-2v39h2v-2h5v2h5v-2h6v2h5v-2h5v2h2V14z" class="gotchi-secondary"/><path d="M18,49h2v-1h2v1h2v2h5v-2h2v-1h2v1h2v2h5v-2h2v-1h2v1h1V14h-4v-2h-4v-2h-5V9h-5v2h-4v2h-4v2h-1V49z" fill="#fff"/></g><path class="gotchi-cheek" d="M21 32v2h2v-2h-1zm21 0h-1v2h2v-2z"/><g class="gotchi-primary-mouth"><path d="M29 32h-2v2h2v-1z"/><path d="M33 34h-4v2h6v-2h-1z"/><path d="M36 32h-1v2h2v-2z"/></g><g class="gotchi-shadow"><path opacity=".25" d="M25 58H19v1h1v1h24V59h1V58h-1z" fill="#000"/></g>,<g class="gotchi-collateral"><path d="M30 11v1h4v-1h-4z"/><path d="M29 12h1v1h-1zm7.5 2.5v4h1v-4h-1zm-10 4h1v-4h-1v4z"/><path d="M27.5 13.5h1v1h-1zm8 5h1v1h-1zm0-5h1v1h-1zM34 12h1v1h-1zm-5 8h1v1h-1zm-1.5-1.5h1v1h-1zM34 20h1v1h-1z"/><path d="M30 21v1h4v-1h-4z"/><g fill="#ff5e00"><path d="M32.5 16h-1v-1h2v-1h-1v-1h-1v1h-2v1h1v3h-1v1h2v1h1v-1h1v-1h-2v-1h2v-1h-1z"/><path d="M33.5 17h1v1h-1zm0-2h1v1h-1z"/></g></g><g class="gotchi-eyeColor"><rect x="21" y="23" width="8" height="1" class="gotchi-primary" /><rect x="24" y="24" width="2" height="2" /><rect x="35" y="23" width="8" height="1" class="gotchi-primary" /><rect x="38" y="24" width="2" height="2" /><rect x="37" y="24" width="4" height="1" /><rect x="23" y="24" width="4" height="1" /></g><g class="gotchi-wearable wearable-body"><svg x="7" y="31"><path d="M38 3v2h-2v2h-6v2H20V7h-6V5h-2V3H7.5v7H8v14h4v-2h5v2h5v-2h6v2h5v-2h5v2h4V10h.5V3H38z" fill="#0fa9c9"/><g fill="#0f5a87"><path d="M42.5 6H40v16h-2v2h4V10h.5V6zM12 20h5v2h-5v-2z"/><path d="M33 20h5v2h-5v-2zm-16 2h5v2h-5v-2z"/><path d="M22,20h6v2h-6V20z"/><path d="M28 22h5v2h-5v-2zM8 24h4v-2h-2V6H7.5v4H8v14z"/></g><g fill="#fff"><path d="M27 14v-2h1v-1h-1v-1h-1v1h-2v-1h-1v1h-1v1h1v2H10v2h30v-2H27zm-1 0h-2v-2h2v2z"/><path d="M24,9h2v1h-2V9z"/></g><path d="M24 14v2h2v-2h-2zm-4 0v2h2v-2h-2zm-8 0v2h2v-2h-2zm20 0v2h2v-2h-2zm4 0v2h2v-2h-2zm-8 4v4h5v-4h-5zm-11 0v4h5v-4h-5zm1-2v-2h-2v2h2zm12 0v-2h-2v2h2z" fill="#a73796"/>,</svg></g><g class="gotchi-handsDownClosed"><g class="gotchi-primary"><path d="M19 42h1v1h-1zm1-6h1v1h-1z"/><path d="M21 37h1v1h-1zm5 3v4h1v-4zm-5 3h-1v1h2v-1z"/><path d="M24 44h-2v1h4v-1h-1zm1-5h-1v1h2v-1z"/><path d="M23 38h-1v1h2v-1z"/></g><g class="gotchi-secondary"><path d="M19 43h1v1h-1zm5 2h-2v1h4v-1h-1z"/><path d="M27 41v3h1v-3zm-6 3h-1v1h2v-1z"/><path d="M26 44h1v1h-1zm-7-3h-1v2h1v-1z"/></g><g class="gotchi-primary"><path d="M44 42h1v1h-1zm-1-6h1v1h-1z"/><path d="M42 37h1v1h-1z"/><path d="M42 39v-1h-2v1h1zm0 4v1h2v-1h-1z"/><path d="M40 44h-2v1h4v-1h-1z"/><path d="M38 42v-2h-1v4h1v-1z"/><path d="M40 40v-1h-2v1h1z"/></g><g class="gotchi-secondary"><path d="M42 44v1h2v-1h-1zm-5-2v-1h-1v3h1v-1z"/><path d="M40 45h-2v1h4v-1h-1z"/><path d="M37 44h1v1h-1zm7-1h1v1h-1z"/></g></g><g class="gotchi-handsDownOpen"><g class="gotchi-primary"><path d="M56 38v-1h-2v-1h-2v-1h-1v-1h-1v-1h-1v8h1v1h2v1h4v-1h1v-4z"/></g><g class="gotchi-secondary"><path d="M54 38v-1h-2v-1h-1v-1h-1v-1h-1v6h1v1h2v1h4v-4z" /></g><path d="M54,38v-1h-2v-1h-1v-1h-1v-1h-1v5h1v1h2v1h4v-3H54z" fill="#fff"/><g class="gotchi-primary"><path d="M8 38v-1h2v-1h2v-1h1v-1h1v-1h1v8h-1v1h-2v1H8v-1H7v-4z"/></g><g class="gotchi-secondary"><path d="M10 38v-1h2v-1h1v-1h1v-1h1v6h-1v1h-2v1H8v-4z" /></g><path d="M8,38v3h4v-1h2v-1h1v-5h-1v1h-1v1h-1v1h-2v1H8z" fill="#fff"/></g><g class="gotchi-handsUp"><g class="gotchi-secondary"><path d="M50,38h1v1h-1V38z"/><path d="M49 39h1v1h-1v-1zm2-2h1v1h-1v-1z"/><path d="M52,36h2v1h-2V36z"/><path d="M54,35h2v1h-2V35z"/></g><path d="M52,32v1h-2v1h-1v5h1v-1h1v-1h1v-1h2v-1h2v-3H52z" fill="#fff"/><g class="gotchi-primary"><path d="M49,33h1v1h-1V33z"/><path d="M50 32h2v1h-2v-1zm0 7h1v1h-1v-1z"/><path d="M49 40h1v1h-1v-1zm2-2h1v1h-1v-1z"/><path d="M52 37h2v1h-2v-1zm0-6h4v1h-4v-1z"/><path d="M56,32h1v4h-1V32z"/><path d="M54,36h2v1h-2V36z"/></g><g class="gotchi-secondary"><path d="M13,38h1v1h-1V38z"/><path d="M14 39h1v1h-1v-1zm-2-2h1v1h-1v-1z"/><path d="M10,36h2v1h-2V36z"/><path d="M8,35h2v1H8V35z"/></g><path d="M8,32v3h2v1h2v1h1v1h1v1h1v-5h-1v-1h-2v-1H8z" fill="#fff"/><g class="gotchi-primary"><path d="M14,33h1v1h-1V33z"/><path d="M12 32h2v1h-2v-1zm1 7h1v1h-1v-1z"/><path d="M14 40h1v1h-1v-1zm-2-2h1v1h-1v-1z"/><path d="M10 37h2v1h-2v-1zm-2-6h4v1H8v-1z"/><path d="M7,32h1v4H7V32z"/><path d="M8,36h2v1H8V36z"/></g></g><g class="gotchi-wearable wearable-eyes"><svg x="15" y="22"><path d="M32,0H2v2H0v4h2v2h30V6h2V2h-2V0z" fill="#c8c8c8"/><path d="M2,2h30v4H2V2z"/><path d="M26,2v4h2V2H26z" fill="#c260ff"/></svg></g><g class="gotchi-wearable wearable-head"><svg x="11" y="6"><path d="M38 6v2h-2V6h-2V4h-4V2h-4V0H16v2h-4v2H8v2H6v2H4V6H0v10h2v2h2v10h2v-2h30v2h2V18h2v-2h2V6z" fill="#0f5a87"/><path d="M34,8V6h-4V4h-4V2H16v2h-4v2H8v2H6v18h30V8H34z" fill="#0fa9c9"/><path d="M16 16h-4v2h-2v4h2v2h4v-2h2v-4h-2v-2zm14 0h-4v2h-2v4h2v2h4v-2h2v-4h-2v-2z" fill="#0f5a87"/><g fill="#fff"><path d="M38 8h2v8h-2V8zM2 8h2v8H2V8zm19.5-1h1v2h-1V7zm-2 0h1v2h-1V7z"/><path d="M22.5 9h1v2h-1V9zm-2-3h1v1h-1V6z"/><path d="M18.5 10h-2v1h1v2h1v-2h2v-1h-1V9h-1v1zm5 1h1v2h-1v-2z"/><path d="M16.5 13h1v2h-1v-2zm8 0h1v2h-1v-2zM12 16h2v2h-2v-2z"/><path d="M10 18h2v2h-2v-2zm16-2h2v2h-2v-2z"/><path d="M24,18h2v2h-2V18z"/></g></svg></g>"><svg x="7" y="31"><g><g class="gotchi-sleeves gotchi-sleeves-left gotchi-sleeves-up"><path d="M43 2V1h2V0h4v1h1v4h-1v1h-2v1h-2v1h-1v1h-1v1h-1.5V9h1V3h-1V2H43z" fill="#0f5a87"/><path d="M43 3V2h2v4 1h-1v1h-1v1h-1V3z" fill="#0fa9c9"/><path d="M45 2V1h4v4h-2v1h-2z" fill="#a73796"/></g><g class="gotchi-sleeves gotchi-sleeves-left gotchi-sleeves-down"><path d="M42 3V2h1v1h1v1h1v1h2v1h2v1h1v4h-1v1h-4v-1h-2v-1h-2V6h1V3z" fill="#0f5a87"/><path d="M43 3v1h1v1h1v1 4h-2V9h-1V6h-1V3z" fill="#0fa9c9"/><path d="M45 6h2v1h2v4h-4z" fill="#a73796"/></g><g class="gotchi-sleeves gotchi-sleeves-right gotchi-sleeves-up"><path d="M7 2V1H5V0H1v1H0v4h1v1h2v1h2v1h1v1h1v1h1.5V9h-1V3h1V2H7z" fill="#0f5a87"/><path d="M7 3V2H5v4 1h1v1h1v1h1V3z" fill="#0fa9c9"/><path d="M5 2V1H1v4h2v1h2z" fill="#a73796"/></g><g class="gotchi-sleeves gotchi-sleeves-right gotchi-sleeves-down"><path d="M8 3V2H7v1H6v1H5v1H3v1H1v1H0v4h1v1h4v-1h2v-1h2V6H8V3z" fill="#0f5a87"/><path d="M7 3v1H6v1H5v1 4h2V9h1V6h1V3z" fill="#0fa9c9"/><path d="M5 6H3v1H1v4h4z" fill="#a73796"/></g></g>,</svg><g class="gotchi-wearable wearable-hand wearable-hand-left"><svg x="0" y="34"><path d="M11 3V2h-1V1H9V0H3v1H2v1H1v1H0v6h1v1h1v1h1v1h6v-1h1v-1h1V9h1V3z" fill="#00d2ff"/><path d="M0,6.1v2h12v-2H0z" fill="#f500eb"/><path d="M0,4.1v2h12v-2H0z" fill="#00f0ff"/><path d="M0,8.1v1h1v1h10v-1h1v-1H0z" fill="#d719cd"/><path d="M2,10.1v1h1v1h6v-1h1v-1H2z" fill="#cd00c3"/><g fill="#fff"><path d="M4.6 8.1v1.2h2.8V8.1H4.6z"/><path d="M7.4 4.1v4h1.2v-4H7.4zm-2.8 0H3.4v4h1.2v-4zm-1.7-.5h.6v-.2h.2v-.5h-.6v.2h.4v.3h-.7v-.9h.9v-.2h-.9v.2h-.2v.9h.2v.2h.1zm1.9-1.1v-.2h-.7v.2h-.2v.9h.2v.2h.7v-.2H5v-.9h-.2zm0 .9h-.7v-.9h.7v.9zm4-1.1h-.2v.5h-.7v-.5h-.2v1.3h.2V3h.7v.6h.2V2.3zm.2 0h.2v1.3H9zm-1.7.2h.2v.2h-.2z"/><path d="M6.6 2.3v.2h-.2v.9h.2v.2h.7v-.2h.2v-.2h-.2v.2h-.7v-.9h.7v-.2h-.7zm-1.4 0v.2h.4v1.1h.2V2.5h.4v-.2h-1z"/></g></svg></g><g class="gotchi-wearable wearable-hand wearable-hand-right"><svg x="3" y="32"><g transform="scale(-1, 1) translate(-58, 0)"><path d="M18 6V4h-2V2h-2V0H6v2H4v2H2v2H0v8h2v2h2v2h2v2h8v-2h2v-2h2v-2h2V6z" fill="#0f5a87"/><path d="M16,6V4h-2V2H6v2H4v2H2v8h2v2h2v2h8v-2h2v-2h2V6H16z" fill="#0fa9c9"/><path d="M14 8V6h-2V4H8v2H6v2H4v4h2v2h2v2h4v-2h2v-2h2V8z" fill="#e6cce1"/><path d="M14 9V8h-1V7h-1V6h-1V5H9v1H8v1H7v1H6v1H5v2h1v1h1v1h1v1h1v1h2v-1h1v-1h1v-1h1v-1h1V9z" fill="#fff"/><g fill="#0f5a87"><path d="M9 7h2v1H9z"/><path d="M12 8h-1v2H9V8H8v2H7v1h1v2h1v-2h2v2h1v-2h1v-1h-1z"/></g></g></svg></g></svg>